<svg width="20" height="19" viewBox="0 0 20 19" fill="none" xmlns="http://www.w3.org/2000/svg">
<path fill-rule="evenodd" clip-rule="evenodd" d="M12.9891 14.1876C14.3684 14.286 15.5558 13.3911 15.6416 12.1889L13.7132 12.0512C14.8344 11.9057 15.7193 11.1004 15.793 10.0687L13.861 9.93079C14.9839 9.78654 15.8706 8.98054 15.9443 7.94776L10.9501 7.59131C10.8764 8.6241 11.6396 9.54785 12.7307 9.85012L10.7987 9.71223C10.7251 10.7434 11.4867 11.6667 12.576 11.9701L10.6474 11.8324C10.5616 13.0346 11.6099 14.0891 12.9891 14.1876Z" fill="#FF4802"/>
<path fill-rule="evenodd" clip-rule="evenodd" d="M4.0943 16.0781C4.29557 16.2978 4.56135 16.423 4.83605 16.4514C4.84045 16.7275 4.94207 17.0032 5.14333 17.2228C5.5799 17.6992 6.31999 17.7315 6.79637 17.2949C7.03618 17.0752 7.16345 16.7785 7.17502 16.4772C7.47613 16.4919 7.78277 16.391 8.02258 16.1712C8.49896 15.7346 8.53124 14.9946 8.09467 14.5182C7.8934 14.2986 7.62763 14.1733 7.35292 14.1449C7.34853 13.8688 7.24691 13.5931 7.04564 13.3735C6.60908 12.8971 5.86899 12.8648 5.39261 13.3014C5.15279 13.5211 5.02553 13.8178 5.01396 14.1191C4.71285 14.1044 4.40621 14.2053 4.1664 14.4251C3.69002 14.8617 3.65774 15.6018 4.0943 16.0781Z" fill="#DAA8EF"/>
<path fill-rule="evenodd" clip-rule="evenodd" d="M4.68505 6.8564C5.89024 6.27548 6.69006 4.98444 6.60425 3.53773C5.04269 3.63035 3.79387 4.80399 3.5082 6.30779L3.47354 5.72352C3.4092 4.63873 2.49762 3.80887 1.43928 3.87165L0.00162954 3.95692L0.0890326 5.43051C0.153375 6.5153 1.06496 7.34516 2.1233 7.28238L2.31424 7.27106C1.10905 7.85198 0.309233 9.14303 0.395042 10.5897C1.9566 10.4971 3.20542 9.32347 3.4911 7.81967L3.52575 8.40394C3.59009 9.48874 4.50168 10.3186 5.56001 10.2558L6.99766 10.1705L6.91026 8.69696C6.84592 7.61216 5.93433 6.78231 4.876 6.84508L4.68505 6.8564Z" fill="#3057A7"/>
<path d="M16.9631 5.83833C18.437 5.83833 19.6318 4.64347 19.6318 3.16953C19.6318 1.69559 18.437 0.500732 16.9631 0.500732C15.4891 0.500732 14.2943 1.69559 14.2943 3.16953C14.2943 4.64347 15.4891 5.83833 16.9631 5.83833Z" fill="#EDCE18"/>
</svg>
